<svg id="Layer_1" data-name="Layer 1" xmlns="http://www.w3.org/2000/svg" viewBox="0 0 761.5 685.88"><defs><style>.cls-1{fill:#fd7e14;}</style></defs><path class="cls-1" d="M902.65,263.36,686.71,208.57s-22.57-6.44-41.9,6.45l-67.69,41.9v137l43.51-22.56V277.87L669,252.08l167.6,45.13L401.46,538.94,237.09,493.81,430.47,381s-1.55,93-1.61,95.08l48.35-22.56V340.72s-6.45-25.79-41.9-9.67L164.57,482.53s-22.57,29,19.33,41.9l216,61.24,64.46-35.26V869.3s3.23,35.46,35.46,19.34l174-132.14V435.77L912.32,305.26S934.88,273,902.65,263.36ZM622.24,733.93l-96.69,83.81s-16.11,9.66-16.11-9.67V525.72L622.24,464Z" transform="translate(-158.5 -206.96)"/></svg>